# xmcd
#
# Track frame offsets:
#	150
#	13192
#	21650
#	29846
#	44442
#	55415
#	63541
#	70499
#	86822
#	97065
#	103349
#	114044
#	135907
#	143158
#	149090
#	161331
#	168558
#	182623
#	199951
#
# Disc length: 2811 seconds
#
# Revision: 0
# Processed by: cddbd v1.5PL3 Copyright (c) Steve Scherf et al.
# Submitted via: audiograbber 1.80.04
#
DISCID=270af913
DTITLE=Lucky Ron - The Saturday Show - Disk 1
DYEAR=1900
DGENRE=Country
TTITLE0=The Show Has Begun
TTITLE1=Old Slough-Foot
TTITLE2=Six Days on the Road
TTITLE3=Ghost Riders
TTITLE4=Battle of New Orleans
TTITLE5=Tennessee
TTITLE6=Sure to Fall
TTITLE7=Get Off That Stool
TTITLE8=Lonesome Blues
TTITLE9=Hot Rod Man
TTITLE10=Ben in the Pen
TTITLE11=One Piece at a Time
TTITLE12=The Race is On
TTITLE13=Honky Tonk Man
TTITLE14=Sitt'n and Think'n
TTITLE15=Hockey Song
TTITLE16=Drink'n My Way Back To You
TTITLE17=A Boy Named Sue
TTITLE18=Wasted Days and Wasted Nights
EXTD=The Weekly Show\n\nOttawa, Ontario
EXTT0=
EXTT1=
EXTT2=
EXTT3=
EXTT4=
EXTT5=
EXTT6=
EXTT7=
EXTT8=
EXTT9=
EXTT10=
EXTT11=
EXTT12=
EXTT13=
EXTT14=
EXTT15=
EXTT16=
EXTT17=
EXTT18=
PLAYORDER=
